<svg xmlns="http://www.w3.org/2000/svg" viewBox="0 0 1024 1024">
  <defs>
    <radialGradient id="purpleGlow" cx="80" cy="80" r="1100" gradientUnits="userSpaceOnUse">
      <stop offset="0%" stop-color="#7c4dff" stop-opacity="0.75"/>
      <stop offset="100%" stop-color="#7c4dff" stop-opacity="0"/>
    </radialGradient>
    <radialGradient id="cyanGlow" cx="944" cy="944" r="600" gradientUnits="userSpaceOnUse">
      <stop offset="0%" stop-color="#22d3ee" stop-opacity="0.3"/>
      <stop offset="100%" stop-color="#22d3ee" stop-opacity="0"/>
    </radialGradient>
    <mask id="waveCutout">
      <rect x="0" y="0" width="1024" height="1024" fill="white"/>
      <g fill="none" stroke="black" stroke-width="180" stroke-linecap="round">
        <path d="M 162 747 A 110 110 0 0 0 52 637"/>
        <path d="M 312 747 A 260 260 0 0 0 52 487"/>
        <path d="M 462 747 A 410 410 0 0 0 52 337"/>
      </g>
      <circle cx="52" cy="747" r="60" fill="black"/>
    </mask>
  </defs>

  <rect x="52" y="167" width="920" height="580" rx="50" ry="50" fill="#0e0b1a"/>
  <rect x="52" y="167" width="920" height="580" rx="50" ry="50" fill="url(#purpleGlow)"/>
  <rect x="52" y="167" width="920" height="580" rx="50" ry="50" fill="url(#cyanGlow)"/>

  <g mask="url(#waveCutout)">
    <rect x="52" y="167" width="920" height="580" rx="50" ry="50"
          fill="none" stroke="#f1f5f9" stroke-width="100"/>
    <path d="M 419 317 L 419 597 L 698 457 Z"
          fill="#f1f5f9" stroke="#f1f5f9" stroke-width="24" stroke-linejoin="round"/>
  </g>

  <line x1="362" y1="887" x2="662" y2="887"
        stroke="#f1f5f9" stroke-width="100" stroke-linecap="round"/>

  <g stroke="#f1f5f9" fill="none" stroke-width="100" stroke-linecap="round">
    <path d="M 162 747 A 110 110 0 0 0 52 637"/>
    <path d="M 312 747 A 260 260 0 0 0 52 487"/>
    <path d="M 462 747 A 410 410 0 0 0 52 337"/>
  </g>
</svg>
