<svg xmlns="http://www.w3.org/2000/svg" viewBox="0 0 1024 1024">
  <defs>
    <radialGradient id="purpleGlow" cx="80" cy="80" r="1100" gradientUnits="userSpaceOnUse">
      <stop offset="0%" stop-color="#7c4dff" stop-opacity="0.75"/>
      <stop offset="100%" stop-color="#7c4dff" stop-opacity="0"/>
    </radialGradient>
    <radialGradient id="cyanGlow" cx="944" cy="944" r="600" gradientUnits="userSpaceOnUse">
      <stop offset="0%" stop-color="#22d3ee" stop-opacity="0.3"/>
      <stop offset="100%" stop-color="#22d3ee" stop-opacity="0"/>
    </radialGradient>
    <clipPath id="badge">
      <rect x="80" y="80" width="864" height="864" rx="220" ry="220"/>
    </clipPath>
    <mask id="waveCutout">
      <rect x="0" y="0" width="1024" height="1024" fill="white"/>
      <g fill="none" stroke="black" stroke-width="78" stroke-linecap="round">
        <path d="M 284 670 A 52 52 0 0 0 232 618"/>
        <path d="M 372 670 A 140 140 0 0 0 232 530"/>
        <path d="M 460 670 A 228 228 0 0 0 232 442"/>
      </g>
    </mask>
  </defs>

  <g clip-path="url(#badge)">
    <rect x="80" y="80" width="864" height="864" fill="#0e0b1a"/>
    <rect x="80" y="80" width="864" height="864" fill="url(#purpleGlow)"/>
    <rect x="80" y="80" width="864" height="864" fill="url(#cyanGlow)"/>
  </g>

  <rect x="85" y="85" width="854" height="854" rx="215" ry="215"
        fill="none" stroke="#f1f5f9" stroke-width="8" stroke-opacity="0.45"/>

  <g mask="url(#waveCutout)">
    <g stroke="#f1f5f9" fill="none" stroke-width="52">
      <rect x="232" y="270" width="560" height="400" rx="64" ry="64" stroke-linejoin="round"/>
      <line x1="392" y1="752" x2="632" y2="752" stroke-linecap="round"/>
    </g>
    <path d="M 449 376 L 449 564 L 637 470 Z"
          fill="#f1f5f9" stroke="#f1f5f9" stroke-width="20" stroke-linejoin="round"/>
  </g>

  <g stroke="#f1f5f9" fill="none" stroke-width="52" stroke-linecap="round">
    <path d="M 284 670 A 52 52 0 0 0 232 618"/>
    <path d="M 372 670 A 140 140 0 0 0 232 530"/>
    <path d="M 460 670 A 228 228 0 0 0 232 442"/>
  </g>
</svg>
