<svg xmlns="http://www.w3.org/2000/svg" viewBox="0 0 1024 1024">
  <defs>
    <radialGradient id="purpleGlow" cx="80" cy="80" r="1100" gradientUnits="userSpaceOnUse">
      <stop offset="0%" stop-color="#7c4dff" stop-opacity="0.75"/>
      <stop offset="100%" stop-color="#7c4dff" stop-opacity="0"/>
    </radialGradient>
    <radialGradient id="cyanGlow" cx="944" cy="944" r="600" gradientUnits="userSpaceOnUse">
      <stop offset="0%" stop-color="#22d3ee" stop-opacity="0.3"/>
      <stop offset="100%" stop-color="#22d3ee" stop-opacity="0"/>
    </radialGradient>
    <mask id="waveCutout">
      <rect x="0" y="0" width="1024" height="1024" fill="white"/>
      <g fill="none" stroke="black" stroke-width="120" stroke-linecap="round">
        <path d="M 202 697 A 100 100 0 0 0 102 597"/>
        <path d="M 322 697 A 220 220 0 0 0 102 477"/>
        <path d="M 442 697 A 340 340 0 0 0 102 357"/>
      </g>
    </mask>
  </defs>

  <rect x="52" y="167" width="920" height="580" rx="50" ry="50" fill="#0e0b1a"/>
  <rect x="52" y="167" width="920" height="580" rx="50" ry="50" fill="url(#purpleGlow)"/>
  <rect x="52" y="167" width="920" height="580" rx="50" ry="50" fill="url(#cyanGlow)"/>

  <g mask="url(#waveCutout)">
    <rect x="52" y="167" width="920" height="580" rx="50" ry="50"
          fill="none" stroke="#f1f5f9" stroke-width="80"/>
    <path d="M 432 337 L 432 577 L 672 457 Z"
          fill="#f1f5f9" stroke="#f1f5f9" stroke-width="24" stroke-linejoin="round"/>
  </g>

  <line x1="362" y1="857" x2="662" y2="857"
        stroke="#f1f5f9" stroke-width="80" stroke-linecap="round"/>

  <g stroke="#f1f5f9" fill="none" stroke-width="80" stroke-linecap="round">
    <path d="M 202 697 A 100 100 0 0 0 102 597"/>
    <path d="M 322 697 A 220 220 0 0 0 102 477"/>
    <path d="M 442 697 A 340 340 0 0 0 102 357"/>
  </g>
</svg>
